# xmcd CD database file
#
# Track frame offsets:
#	182
#	19445
#	38382
#	57457
#	74407
#	88970
#	105232
#	120757
#	137045
#	164720
#	179007
#	198582
#	216220
#	231782
#	244820
#	262832
#
# Disc length: 3639 seconds
#
# Revision: 2
# Processed by: cddbd v1.4b41PL1 Copyright (c) Steve Scherf et al.
# Submitted via: Feurio! 1.50.2ß - http://www.feurio.com
#
DISCID=e50e3510
DTITLE=Various Artist - Die Große Starparade
DYEAR=1900
DGENRE=
TTITLE0=Münchner Freiheit - So lang man Träume noch leben kann
TTITLE1=Mandy Winter - Julian
TTITLE2=Drafi Deutscher - Herz an Herz Gefühl.
TTITLE3=Sandra - Everlasting Love
TTITLE4=Paul Anka - A Steal Guitar And A Glas Of Wine
TTITLE5=C.C. Catch - Heartbreak Hotel
TTITLE6=Klaus Lage - Die Liebe bleibt
TTITLE7=Munich Symphonic Sound Orchestra - Felicita
TTITLE8=Umterto Tozzi - Gloria
TTITLE9=Shirley Bassey - I An What I Am
TTITLE10=Al Bank and Romina Power - Liberta
TTITLE11=Amanda Lear - Follow Me
TTITLE12=Albert Hammond - The Free Electric Band
TTITLE13=Peter Hofmann - Sunrise
TTITLE14=Jule Neigel Band - Schatten an der Wand
TTITLE15=Fantasy Strings and Voices - Das gibt's nur einmal
EXTD=
EXTT0=
EXTT1=
EXTT2=
EXTT3=
EXTT4=
EXTT5=
EXTT6=
EXTT7=
EXTT8=
EXTT9=
EXTT10=
EXTT11=
EXTT12=
EXTT13=
EXTT14=
EXTT15=
PLAYORDER=
